<?xml version="1.0" encoding="UTF-8" standalone="no"?> <!-- Created with Vectornator for iOS (http://vectornator.io/) --><!DOCTYPE svg PUBLIC "-//W3C//DTD SVG 1.1//EN" "http://www.w3.org/Graphics/SVG/1.1/DTD/svg11.dtd">
<svg height="100%" style="fill-rule:nonzero;clip-rule:evenodd;stroke-linecap:round;stroke-linejoin:round;" xmlns:xlink="http://www.w3.org/1999/xlink" xmlns="http://www.w3.org/2000/svg" xml:space="preserve" width="100%" xmlns:vectornator="http://vectornator.io" version="1.1" viewBox="0 0 480 398.111">
<metadata>
<vectornator:setting key="DimensionsVisible" value="1"/>
<vectornator:setting key="PencilOnly" value="0"/>
<vectornator:setting key="SnapToPoints" value="0"/>
<vectornator:setting key="OutlineMode" value="0"/>
<vectornator:setting key="CMYKEnabledKey" value="0"/>
<vectornator:setting key="RulersVisible" value="1"/>
<vectornator:setting key="SnapToEdges" value="0"/>
<vectornator:setting key="GuidesVisible" value="1"/>
<vectornator:setting key="DisplayWhiteBackground" value="0"/>
<vectornator:setting key="doHistoryDisabled" value="0"/>
<vectornator:setting key="SnapToGuides" value="1"/>
<vectornator:setting key="TimeLapseWatermarkDisabled" value="0"/>
<vectornator:setting key="Units" value="Points"/>
<vectornator:setting key="DynamicGuides" value="0"/>
<vectornator:setting key="IsolateActiveLayer" value="0"/>
<vectornator:setting key="SnapToGrid" value="0"/>
</metadata>
<defs>
<linearGradient y1="32.9999" id="LinearGradient" x1="6.00017" y2="344" x2="235" gradientUnits="userSpaceOnUse" gradientTransform="matrix(0.448003 0.0969043 -0.0969043 0.448003 10.0204 119.749)">
<stop stop-color="#41d1ff" offset="0"/>
<stop stop-color="#bd34fe" offset="1"/>
</linearGradient>
<linearGradient y1="8.81818" id="LinearGradient_2" x1="194.651" y2="292.989" x2="236.076" gradientUnits="userSpaceOnUse" gradientTransform="matrix(0.448003 0.0969043 -0.0969043 0.448003 10.0204 119.749)">
<stop stop-color="#ffea83" offset="0"/>
<stop stop-color="#ffdd35" offset="0.0833333"/>
<stop stop-color="#ffa800" offset="1"/>
</linearGradient>
</defs>
<g id="Layer 1" vectornator:layerName="Layer 1">
<g opacity="1">
<g opacity="1">
<path d="M289.724+3.50538L237.578+93.8254L185.433+3.50538L11.78+3.50538L237.579+394.605L463.379+3.50538L289.724+3.50538Z" fill-rule="evenodd" fill="#41b883" opacity="1"/>
<path d="M289.724+3.50538L237.578+93.8254L185.433+3.50538L102.1+3.50538L237.579+238.16L373.058+3.50538L289.724+3.50538Z" fill-rule="evenodd" fill="#34495e" opacity="1"/>
</g>
<g opacity="1">
<path d="M183.292+185.143L68.9774+314.715C66.6171+317.39+62.2407+316.463+61.1683+313.06L8.98973+147.456C7.82161+143.749+11.5084+140.362+15.1037+141.839L94.4331+174.438C94.9392+174.646+95.4783+174.762+96.0255+174.78L180.005+177.53C183.879+177.657+185.857+182.236+183.292+185.143Z" fill-rule="evenodd" fill="url(#LinearGradient)" opacity="1"/>
<path d="M141.117+148.844L77.5296+147.602C76.4845+147.582+75.5584+148.271+75.2773+149.278L57.8164+211.842C57.4053+213.316+58.5256+214.771+60.0551+214.75L77.8868+214.504C79.5551+214.481+80.6882+216.191+80.016+217.719L69.6255+241.336C68.9262+242.926+70.18+244.685+71.9107+244.543L83.09+243.625C84.8231+243.483+86.0773+245.247+85.3732+246.837L68.9593+283.915C67.9324+286.234+70.8752+288.256+72.6722+286.466L73.8724+285.27L145.037+196.822C146.229+195.341+145.203+193.137+143.303+193.094L125.091+192.687C123.38+192.648+122.313+190.816+123.124+189.309L143.09+152.222C143.903+150.712+142.831+148.878+141.117+148.844Z" fill-rule="evenodd" fill="url(#LinearGradient_2)" opacity="1"/>
</g>
<g opacity="1">
<path d="M294.072+218.511L417.026+183.997C425.267+181.684+433.823+186.489+436.136+194.73L470.65+317.685C472.963+325.926+468.158+334.482+459.917+336.795L336.962+371.309C328.721+373.622+320.165+368.817+317.852+360.576L283.338+237.621C281.025+229.38+285.831+220.824+294.072+218.511Z" fill-rule="evenodd" fill="#3178c6" opacity="1"/>
<path d="M407.848+317.606L412.037+332.528C414.806+333.103+418.02+333.199+421.479+332.904C424.937+332.609+428.602+331.902+432.183+330.897C435.765+329.892+438.955+328.642+442.045+327.034C445.135+325.426+447.503+323.538+449.48+321.406C451.453+319.146+452.951+316.568+453.391+313.547C453.831+310.526+453.918+307.282+452.829+303.402C452.067+300.687+450.987+298.446+449.595+296.584C448.203+294.721+446.536+293.257+444.506+292.217C442.54+291.063+440.386+290.154+437.961+289.547C435.537+288.939+432.798+288.356+429.794+287.976C427.598+287.723+425.769+287.4+423.76+287.126C421.991+286.786+420.43+286.387+419.227+285.888C417.897+285.392+416.827+284.791+415.987+284.093C415.139+283.365+414.564+282.464+414.254+281.36C413.969+280.345+413.975+279.345+414.281+278.358C414.586+277.371+415.137+276.476+415.924+275.611C416.711+274.746+417.78+273.963+419.12+273.233C420.43+272.511+421.94+271.926+423.761+271.415C425.014+271.063+426.353+270.787+427.719+270.607C429.145+270.409+430.629+270.305+432.14+270.299C433.652+270.294+435.159+270.386+436.729+270.589C438.209+270.817+439.626+271.16+440.888+271.643L436.951+257.616C434.44+257.388+431.749+257.435+428.945+257.771C426.142+258.107+423.099+258.736+419.518+259.741C415.937+260.746+412.763+262.056+409.69+263.723C406.616+265.391+404.265+267.339+402.339+269.65C400.374+271.94+399.166+274.404+398.428+277.509C397.729+280.409+397.846+283.467+398.852+287.048C400.108+291.525+402.481+295.044+405.915+297.3C409.403+299.862+414.072+301.127+419.815+302.09C422.109+302.348+424.164+302.673+426.181+302.976C428.198+303.279+429.924+303.696+431.361+304.226C432.887+304.731+434.17+305.401+435.141+306.223C436.172+307.029+436.895+308.113+437.281+309.486C437.549+310.441+437.567+311.402+437.348+312.365C437.129+313.328+436.62+314.243+435.832+315.108C435.045+315.973+434.015+316.777+432.653+317.546C431.343+318.268+429.811+318.891+427.722+319.477C424.44+320.399+420.998+320.753+417.695+320.457C414.094+320.245+410.632+319.381+407.318+317.897L407.848+317.606ZM372.476+287.936L391.576+282.574L388.141+270.339L334.721+285.334L338.156+297.569L357.256+292.208L372.586+346.821L387.806+342.549L372.476+287.936Z" fill-rule="evenodd" fill="#ffffff" opacity="1"/>
</g>
</g>
</g>
</svg>
